<svg width="125" height="125" viewBox="0 0 125 125" fill="none" xmlns="http://www.w3.org/2000/svg">
<rect x="0.5" y="0.682617" width="124" height="124" rx="62" fill="#545454"/>
<path d="M67.7889 54.7804C66.254 55.8059 64.4494 56.3533 62.6033 56.3533C60.1287 56.3504 57.7564 55.3662 56.0066 53.6165C54.2568 51.8669 53.2725 49.4947 53.2696 47.0204C53.2696 45.1745 53.817 43.3701 54.8426 41.8353C55.8682 40.3005 57.3259 39.1043 59.0314 38.3979C60.737 37.6915 62.6137 37.5067 64.4242 37.8668C66.2348 38.2269 67.8979 39.1158 69.2033 40.421C70.5086 41.7263 71.3976 43.3892 71.7577 45.1996C72.1179 47.01 71.933 48.8866 71.2266 50.5919C70.5201 52.2973 69.3238 53.7549 67.7889 54.7804Z" fill="white" fill-opacity="0.95"/>
<path d="M41.7573 78.8381C41.7573 68.943 50.8404 60.5046 62.4965 60.5046C74.1581 60.5046 83.2429 68.9436 83.2429 78.8371C83.2429 81.326 81.3927 83.5257 77.3703 85.2012C73.4246 86.8448 68.0176 87.6692 62.5013 87.6692H62.4807L62.4601 87.6696C57.5135 87.7679 52.5903 86.9631 47.9307 85.2944C45.1046 84.1615 43.5885 82.886 42.7754 81.793C41.9731 80.7144 41.7573 79.6833 41.7573 78.8381Z" fill="white" fill-opacity="0.95"/>
</svg>
